<svg width="133" height="111" viewBox="0 0 133 111" fill="none" xmlns="http://www.w3.org/2000/svg">
<path d="M37.1799 102.165C49.3168 93.7653 72.4596 81.4416 94.6026 72.9278C94.995 72.5768 95.394 72.2229 95.7996 71.8662C104.872 63.848 116.985 53.8446 118.444 42.9077C119.88 31.9469 110.664 20.0287 99.3894 13.5916C88.1144 7.17704 74.7819 6.21824 61.424 6.19149C48.0662 6.16474 34.6844 7.05455 28.0258 14.3068C21.3983 21.538 21.4941 35.1514 20.4885 47.5722C19.483 59.9931 17.3536 71.2411 20.5843 81.7711C23.2249 90.4369 29.513 98.648 37.1799 102.165Z" fill="#F8F8F8"/>
<path d="M102.937 69.8896C101.761 69.487 97.9131 64.3987 97.9131 58.36C97.9131 51.3443 105.336 38.0646 106.042 33.3339C106.491 30.3251 108.518 3.81787 123.908 3.81787C132.3 3.81787 133 20.2218 133 27.5585C133 44.6974 108.073 59.2963 108.073 68.1987C106.403 68.8833 104.686 69.4483 102.937 69.8896V69.8896Z" fill="#74D5DE"/>
<path d="M104.829 69.2532C104.829 55.5089 115.089 30.4673 124.113 21.655" stroke="#56CAD8" stroke-width="4" stroke-miterlimit="10" stroke-linecap="round"/>
<path d="M45.5844 96.7798C44.7985 96.5461 42.6621 93.8232 42.6621 90.3146C42.6621 86.9355 43.6113 82.0078 43.6113 77.4362C43.6113 74.8934 42.6621 73.9924 42.6621 70.9667C42.6621 66.1445 47.2335 64.676 48.8362 64.676C51.1951 64.676 52.457 66.6936 52.457 67.7622C52.457 69.2532 52.0345 70.3852 52.0345 72.0353C52.0345 75.2609 53.1611 75.665 53.0428 78.4443C52.6907 86.5695 49.3164 94.5131 46.3505 96.3152L45.5844 96.7798Z" fill="#56CAD8"/>
<path d="M45.5844 96.7799C46.5477 95.9492 41.1538 69.6771 36.4754 65.0281C31.3857 59.975 27.2016 57.2999 25.8201 55.6413C23.3696 52.7001 21.8092 41.6084 11.0229 41.6084C8.16964 41.6084 1.44634 43.9667 0.236602 53.9476C-0.159135 57.2238 -0.878785 62.2361 5.94169 69.4997C10.5356 74.3937 16.2815 72.7084 21.8979 78.0106C25.9412 81.8276 25.375 87.5846 29.1507 92.4491C32.1716 96.335 40.0145 101.577 45.5844 96.7799Z" fill="#74D5DE"/>
<path d="M44.2605 97.4064C44.2605 90.813 23.4554 61.0548 15.1309 56.7986" stroke="#56CAD8" stroke-width="4" stroke-miterlimit="10" stroke-linecap="round"/>
<path d="M45.5841 96.7799C45.377 95.2171 44.5039 81.9402 46.9783 77.1025" stroke="#74D5DE" stroke-width="4" stroke-linecap="round" stroke-linejoin="round"/>
<path d="M29.1523 108.971C35.3785 100.083 90.9971 69.7589 124.409 64.1567" stroke="#6D6D6D" stroke-width="3" stroke-miterlimit="10" stroke-linecap="round"/>
<path d="M77.2634 15.8965H63.7535C62.8201 15.8965 62.0635 16.6529 62.0635 17.586V45.6012C62.0635 46.5343 62.8201 47.2907 63.7535 47.2907H77.2634C78.1968 47.2907 78.9534 46.5343 78.9534 45.6012V17.586C78.9534 16.6529 78.1968 15.8965 77.2634 15.8965Z" fill="#FD8369"/>
<path d="M63.515 98.6214V102.282H53.5723V100.733L59.7322 97.9048L63.515 98.6214Z" fill="#333333"/>
<path d="M85.0836 95.1113C85.5864 96.2377 86.7736 99.1563 86.7736 99.1563L81.8121 102.275H77.3167L76.79 100.552L82.4374 96.2306L85.0836 95.1113Z" fill="#333333"/>
<path d="M67.8976 15.1953C70.2131 15.1953 72.0902 12.829 72.0902 9.90992C72.0902 6.99087 70.2131 4.62451 67.8976 4.62451C65.5821 4.62451 63.7051 6.99087 63.7051 9.90992C63.7051 12.829 65.5821 15.1953 67.8976 15.1953Z" fill="#DE8E68"/>
<path d="M64.8451 0.469801C64.2959 -0.284855 62.7453 -0.114494 61.3821 0.86684C60.8661 1.23074 60.4276 1.69353 60.0921 2.22832C60.0477 2.20856 59.9998 2.19756 59.9512 2.19593C59.2893 2.19593 48.2862 8.07971 48.3904 10.7942C48.4946 13.5087 52.1858 17.8621 53.4744 18.697C53.4744 18.697 59.2893 15.9825 58.9767 15.111C58.664 14.2394 55.3151 11.4503 54.7278 10.8984C55.4179 10.538 60.9413 5.06672 61.5652 4.44723C62.22 4.30718 62.8371 4.02823 63.3749 3.62922C64.7353 2.64647 65.3958 1.2329 64.8451 0.469801Z" fill="#DE8E68"/>
<path d="M61.6841 23.46C62.9515 22.4407 60.8532 13.8931 58.6041 13.6833C56.355 13.4735 52.4328 17.71 52.5906 18.9124C52.7483 20.1148 58.4815 26.0225 61.6841 23.46Z" fill="#FCC486"/>
<path d="M56.6533 43.9242C56.6533 45.3322 57.3575 94.0469 58.625 98.2707C59.7516 98.8339 62.7091 98.9747 63.6949 98.5523C64.6807 98.1299 70.9717 44.6958 70.9717 42.3501C70.9717 40.0045 56.6533 43.9242 56.6533 43.9242Z" fill="#56CAD8"/>
<path d="M81.9092 96.7488C80.5642 94.6369 63.0518 53.6265 61.6787 43.5146C63.1166 42.401 73.817 40.6255 74.6831 42.6473C75.5492 44.6691 85.9496 94.6552 85.5933 95.3043C85.237 95.9533 82.9203 96.9656 81.9092 96.7488Z" fill="#74D5DE"/>
<path d="M67.9572 16.7512C77.0409 16.7512 76.4775 41.8829 74.5059 43.4317C72.5342 44.9804 57.1132 45.0508 56.1274 43.9245C55.1415 42.7981 52.8122 16.7512 67.9572 16.7512Z" fill="#FED385"/>
<path d="M74.5659 8.11486C74.5659 7.04342 73.5421 6.27046 73.5421 5.67631C73.5421 5.08216 73.8928 4.01776 73.1083 3.25606C72.1549 2.33105 70.6353 2.71682 69.2749 2.71682C67.9962 2.71682 67.2906 1.23145 65.5457 1.23145C64.3824 1.23145 64.5303 2.74076 64.0951 3.11527C63.7726 3.39686 61.2588 3.9375 61.2588 5.08638C61.2588 6.37042 61.2926 8.09374 63.9599 8.09374C64.1374 7.47706 64.8049 6.12263 65.5654 5.52003C65.9569 5.68898 68.1004 6.57317 68.6313 6.72945C69.1622 6.88573 69.9382 9.15814 70.7607 9.43269C71.5831 9.70724 71.6352 11.2208 72.2366 11.156C72.8379 11.0912 74.5659 10.8378 74.5659 8.11486Z" fill="#FD8369"/>
<path d="M71.5068 11.4348C72.1189 11.4348 72.6152 10.9388 72.6152 10.3268C72.6152 9.71484 72.1189 9.21875 71.5068 9.21875C70.8947 9.21875 70.3984 9.71484 70.3984 10.3268C70.3984 10.9388 70.8947 11.4348 71.5068 11.4348Z" fill="#DE8E68"/>
<path d="M69.9938 18.7222C69.8163 19.3346 66.0913 18.5912 66.1631 17.8985L66.7997 11.7458L71.288 12.7117C71.288 12.7117 70.174 18.1125 69.9938 18.7222Z" fill="#DE8E68"/>
<path d="M95.3653 22.0225L79.6133 100.088" stroke="#333333" stroke-width="7" stroke-miterlimit="10" stroke-linecap="round"/>
<path d="M92.8387 43.5641C92.419 43.1398 91.8775 42.8569 91.2895 42.7545C89.4108 39.7232 83.0269 30.3801 80.2117 26.9856C78.1823 28.4428 75.7051 30.9912 75.7051 30.9912C76.7402 32.1513 84.493 41.3212 88.6179 44.9171C88.6156 45.2938 88.6892 45.6671 88.8344 46.0147C88.9796 46.3623 89.1933 46.6771 89.4629 46.9403C90.5065 47.985 92.1092 48.0751 93.0415 47.1445C93.9738 46.2138 93.8822 44.6088 92.8387 43.5641Z" fill="#DE8E68"/>
<path d="M71.5238 20.8694C75.1671 18.1619 81.1735 24.7089 81.075 26.4308C80.9764 28.1527 76.3599 31.971 74.7812 31.9753C72.8532 31.9781 68.4227 23.1742 71.5238 20.8694Z" fill="#FED892"/>
</svg>
