<svg width="151" height="54" viewBox="0 0 151 54" fill="none" xmlns="http://www.w3.org/2000/svg">
<path fill-rule="evenodd" clip-rule="evenodd" d="M80.7967 0V13.0658C80.7967 23.8899 71.9334 32.6645 61 32.6645L61 19.5987C61 8.77464 69.8633 0 80.7967 0Z" fill="#0088BD"/>
<path fill-rule="evenodd" clip-rule="evenodd" d="M90.695 8.13242L86.2102 20.5777C82.4948 30.8877 71.2079 36.2035 61 32.451L65.4848 20.0058C69.2002 9.69577 80.4872 4.3799 90.695 8.13242Z" fill="#02A9EA"/>
<path d="M3.68224 44.924C3.67291 45.0453 3.66358 45.2133 3.65424 45.428C3.65424 45.6427 3.65424 45.8667 3.65424 46.1C3.65424 46.324 3.65424 46.548 3.65424 46.772C3.66358 46.9867 3.67291 47.1547 3.68224 47.276C3.70091 47.4907 3.74291 47.696 3.80824 47.892C3.87358 48.088 3.97624 48.2607 4.11624 48.41C4.25624 48.5593 4.43358 48.6807 4.64824 48.774C4.86291 48.858 5.12891 48.9 5.44624 48.9C5.76358 48.9 6.02491 48.8627 6.23024 48.788C6.43558 48.7133 6.60358 48.6247 6.73424 48.522C6.86491 48.41 6.96291 48.2887 7.02824 48.158C7.10291 48.0273 7.15891 47.906 7.19624 47.794C7.24291 47.6447 7.29424 47.542 7.35024 47.486C7.40624 47.4207 7.51358 47.388 7.67224 47.388H9.50624C9.59024 47.388 9.66024 47.4207 9.71624 47.486C9.78158 47.542 9.81424 47.612 9.81424 47.696C9.80491 48.172 9.68824 48.62 9.46424 49.04C9.24024 49.46 8.93224 49.824 8.54024 50.132C8.14824 50.44 7.68624 50.6873 7.15424 50.874C6.63158 51.0513 6.06224 51.14 5.44624 51.14C4.77424 51.14 4.17224 51.042 3.64024 50.846C3.11758 50.6407 2.66958 50.3653 2.29624 50.02C1.92291 49.6747 1.63358 49.2733 1.42824 48.816C1.23224 48.3493 1.12024 47.8593 1.09224 47.346C1.07358 46.9633 1.06424 46.5527 1.06424 46.114C1.06424 45.6753 1.07358 45.2553 1.09224 44.854C1.11091 44.3407 1.22291 43.8553 1.42824 43.398C1.63358 42.9313 1.91824 42.5253 2.28224 42.18C2.65558 41.8347 3.10824 41.564 3.64024 41.368C4.17224 41.1627 4.77424 41.06 5.44624 41.06C6.06224 41.06 6.63158 41.1533 7.15424 41.34C7.68624 41.5173 8.14824 41.76 8.54024 42.068C8.93224 42.376 9.24024 42.74 9.46424 43.16C9.68824 43.58 9.80491 44.028 9.81424 44.504C9.81424 44.588 9.78158 44.6627 9.71624 44.728C9.66024 44.784 9.59024 44.812 9.50624 44.812H7.67224C7.51358 44.812 7.40624 44.784 7.35024 44.728C7.29424 44.6627 7.24291 44.5553 7.19624 44.406C7.15891 44.294 7.10291 44.1727 7.02824 44.042C6.96291 43.9113 6.86491 43.7947 6.73424 43.692C6.60358 43.58 6.43558 43.4867 6.23024 43.412C6.02491 43.3373 5.76358 43.3 5.44624 43.3C5.12891 43.3 4.86291 43.3467 4.64824 43.44C4.43358 43.524 4.25624 43.6407 4.11624 43.79C3.97624 43.9393 3.87358 44.112 3.80824 44.308C3.74291 44.504 3.70091 44.7093 3.68224 44.924ZM13.2743 48.158C13.2743 48.3727 13.3117 48.55 13.3863 48.69C13.4703 48.83 13.573 48.942 13.6943 49.026C13.8157 49.11 13.951 49.1707 14.1003 49.208C14.2497 49.236 14.3943 49.25 14.5343 49.25C14.8143 49.25 15.0337 49.222 15.1923 49.166C15.3603 49.11 15.5003 49.0307 15.6123 48.928C15.715 48.844 15.7897 48.7927 15.8363 48.774C15.883 48.746 15.9623 48.732 16.0743 48.732H17.8943C18.0997 48.732 18.2023 48.8347 18.2023 49.04C18.2023 49.152 18.1323 49.3247 17.9923 49.558C17.8523 49.782 17.633 50.0153 17.3343 50.258C17.045 50.4913 16.667 50.6967 16.2003 50.874C15.7337 51.0513 15.1783 51.14 14.5343 51.14C13.9277 51.14 13.3863 51.056 12.9103 50.888C12.4437 50.7107 12.047 50.4587 11.7203 50.132C11.403 49.8053 11.1603 49.4087 10.9923 48.942C10.8337 48.4753 10.7543 47.948 10.7543 47.36C10.7543 46.8187 10.8337 46.3193 10.9923 45.862C11.1603 45.3953 11.403 44.994 11.7203 44.658C12.047 44.322 12.4437 44.0607 12.9103 43.874C13.3863 43.678 13.9277 43.58 14.5343 43.58C15.2157 43.58 15.7943 43.6967 16.2703 43.93C16.7557 44.154 17.1477 44.448 17.4463 44.812C17.7543 45.176 17.9737 45.5867 18.1043 46.044C18.2443 46.492 18.3143 46.94 18.3143 47.388V47.78C18.3143 47.8827 18.277 47.9713 18.2023 48.046C18.1277 48.1207 18.039 48.158 17.9363 48.158H13.2743ZM14.5343 45.47C14.1423 45.47 13.8437 45.5867 13.6383 45.82C13.433 46.0533 13.3117 46.3147 13.2743 46.604H15.7943C15.757 46.3147 15.6357 46.0533 15.4303 45.82C15.225 45.5867 14.9263 45.47 14.5343 45.47ZM27.0562 50.622C27.0562 50.7247 27.0189 50.8133 26.9442 50.888C26.8696 50.9627 26.7809 51 26.6782 51H24.9142C24.8116 51 24.7229 50.9627 24.6482 50.888C24.5736 50.8133 24.5362 50.7247 24.5362 50.622V47.08C24.5362 46.6787 24.4382 46.3567 24.2422 46.114C24.0462 45.8713 23.7382 45.75 23.3182 45.75C22.8982 45.75 22.5902 45.8713 22.3942 46.114C22.2076 46.3567 22.1142 46.6787 22.1142 47.08V50.622C22.1142 50.7247 22.0769 50.8133 22.0022 50.888C21.9276 50.9627 21.8389 51 21.7362 51H19.9722C19.8696 51 19.7809 50.9627 19.7062 50.888C19.6316 50.8133 19.5942 50.7247 19.5942 50.622V44.098C19.5942 43.9953 19.6316 43.9067 19.7062 43.832C19.7809 43.7573 19.8696 43.72 19.9722 43.72H21.6662C21.7689 43.72 21.8576 43.7573 21.9322 43.832C22.0069 43.9067 22.0442 43.9953 22.0442 44.098V44.42C22.1189 44.3267 22.2122 44.2287 22.3242 44.126C22.4362 44.0233 22.5716 43.9347 22.7302 43.86C22.8889 43.776 23.0709 43.7107 23.2762 43.664C23.4909 43.608 23.7382 43.58 24.0182 43.58C24.4662 43.58 24.8769 43.6453 25.2502 43.776C25.6236 43.8973 25.9409 44.0887 26.2022 44.35C26.4729 44.6113 26.6829 44.9427 26.8322 45.344C26.9816 45.7453 27.0562 46.2213 27.0562 46.772V50.622ZM31.8953 48.158C31.8953 48.3727 31.942 48.5407 32.0353 48.662C32.1286 48.774 32.2826 48.83 32.4973 48.83H33.6173C33.72 48.83 33.8086 48.8673 33.8833 48.942C33.958 49.0167 33.9953 49.1053 33.9953 49.208V50.622C33.9953 50.7247 33.958 50.8133 33.8833 50.888C33.8086 50.9627 33.72 51 33.6173 51H32.2873C31.8486 51 31.4473 50.9393 31.0833 50.818C30.7286 50.6873 30.4253 50.5053 30.1733 50.272C29.9213 50.0293 29.7253 49.74 29.5853 49.404C29.4453 49.0587 29.3753 48.6713 29.3753 48.242V45.89H28.3393C28.2366 45.89 28.148 45.8527 28.0733 45.778C27.9986 45.7033 27.9613 45.6147 27.9613 45.512V44.098C27.9613 43.9953 27.9986 43.9067 28.0733 43.832C28.148 43.7573 28.2366 43.72 28.3393 43.72H29.3753V41.438C29.3753 41.3353 29.4126 41.2467 29.4873 41.172C29.562 41.0973 29.6506 41.06 29.7533 41.06H31.5173C31.62 41.06 31.7086 41.0973 31.7833 41.172C31.858 41.2467 31.8953 41.3353 31.8953 41.438V43.72H33.4773C33.58 43.72 33.6686 43.7573 33.7433 43.832C33.818 43.9067 33.8553 43.9953 33.8553 44.098V45.512C33.8553 45.6147 33.818 45.7033 33.7433 45.778C33.6686 45.8527 33.58 45.89 33.4773 45.89H31.8953V48.158ZM40.2622 43.72C40.3648 43.72 40.4535 43.7573 40.5282 43.832C40.6028 43.9067 40.6402 43.9953 40.6402 44.098V45.512C40.6402 45.6147 40.6028 45.7033 40.5282 45.778C40.4535 45.8527 40.3648 45.89 40.2622 45.89H38.9882C38.1295 45.89 37.7002 46.3193 37.7002 47.178V50.622C37.7002 50.7247 37.6628 50.8133 37.5882 50.888C37.5135 50.9627 37.4248 51 37.3222 51H35.5582C35.4555 51 35.3668 50.9627 35.2922 50.888C35.2175 50.8133 35.1802 50.7247 35.1802 50.622V44.098C35.1802 43.9953 35.2175 43.9067 35.2922 43.832C35.3668 43.7573 35.4555 43.72 35.5582 43.72H37.1822C37.2848 43.72 37.3735 43.7573 37.4482 43.832C37.5228 43.9067 37.5602 43.9953 37.5602 44.098V44.42C37.7748 44.2147 38.0315 44.0467 38.3302 43.916C38.6382 43.7853 39.0022 43.72 39.4222 43.72H40.2622ZM41.0206 48.928C41.0206 48.312 41.2539 47.8033 41.7206 47.402C42.1966 47.0007 42.9666 46.7067 44.0306 46.52L45.6686 46.24C45.6686 46.016 45.6079 45.834 45.4866 45.694C45.3652 45.5447 45.1552 45.47 44.8566 45.47C44.6419 45.47 44.4739 45.5027 44.3526 45.568C44.2406 45.624 44.1566 45.6753 44.1006 45.722C44.0166 45.7967 43.9372 45.8433 43.8626 45.862C43.7879 45.8807 43.6992 45.89 43.5966 45.89H41.8186C41.7252 45.89 41.6459 45.862 41.5806 45.806C41.5246 45.75 41.5012 45.6753 41.5106 45.582C41.5292 45.3673 41.6226 45.1433 41.7906 44.91C41.9586 44.6767 42.1872 44.462 42.4766 44.266C42.7752 44.07 43.1252 43.9067 43.5266 43.776C43.9372 43.6453 44.3806 43.58 44.8566 43.58C45.4259 43.58 45.9206 43.65 46.3406 43.79C46.7606 43.93 47.1059 44.126 47.3766 44.378C47.6566 44.6207 47.8619 44.9147 47.9926 45.26C48.1232 45.596 48.1886 45.9693 48.1886 46.38V50.622C48.1886 50.7247 48.1512 50.8133 48.0766 50.888C48.0019 50.9627 47.9132 51 47.8106 51H46.0466C45.9439 51 45.8552 50.9627 45.7806 50.888C45.7059 50.8133 45.6686 50.7247 45.6686 50.622V50.23C45.4446 50.51 45.1646 50.734 44.8286 50.902C44.5019 51.0607 44.0679 51.14 43.5266 51.14C43.1252 51.14 42.7659 51.084 42.4486 50.972C42.1406 50.86 41.8792 50.706 41.6646 50.51C41.4592 50.314 41.3006 50.0807 41.1886 49.81C41.0766 49.5393 41.0206 49.2453 41.0206 48.928ZM44.2126 49.25C44.4179 49.25 44.6092 49.2173 44.7866 49.152C44.9639 49.0773 45.1179 48.9793 45.2486 48.858C45.3792 48.7367 45.4819 48.5967 45.5566 48.438C45.6312 48.27 45.6686 48.0927 45.6686 47.906L44.3806 48.102C44.1286 48.1487 43.9232 48.228 43.7646 48.34C43.6152 48.452 43.5406 48.5967 43.5406 48.774C43.5406 48.9513 43.5966 49.0773 43.7086 49.152C43.8299 49.2173 43.9979 49.25 44.2126 49.25ZM52.2607 50.622C52.2607 50.7247 52.2234 50.8133 52.1487 50.888C52.074 50.9627 51.9854 51 51.8827 51H50.1187C50.016 51 49.9274 50.9627 49.8527 50.888C49.778 50.8133 49.7407 50.7247 49.7407 50.622V41.438C49.7407 41.3353 49.778 41.2467 49.8527 41.172C49.9274 41.0973 50.016 41.06 50.1187 41.06H51.8827C51.9854 41.06 52.074 41.0973 52.1487 41.172C52.2234 41.2467 52.2607 41.3353 52.2607 41.438V50.622ZM59.2721 44.924C59.2628 45.0453 59.2534 45.2133 59.2441 45.428C59.2441 45.6427 59.2441 45.8667 59.2441 46.1C59.2441 46.324 59.2441 46.548 59.2441 46.772C59.2534 46.9867 59.2628 47.1547 59.2721 47.276C59.2908 47.4907 59.3328 47.696 59.3981 47.892C59.4634 48.088 59.5661 48.2607 59.7061 48.41C59.8461 48.5593 60.0234 48.6807 60.2381 48.774C60.4528 48.858 60.7188 48.9 61.0361 48.9C61.3534 48.9 61.6148 48.8627 61.8201 48.788C62.0254 48.7133 62.1934 48.6247 62.3241 48.522C62.4548 48.41 62.5528 48.2887 62.6181 48.158C62.6928 48.0273 62.7488 47.906 62.7861 47.794C62.8328 47.6447 62.8841 47.542 62.9401 47.486C62.9961 47.4207 63.1034 47.388 63.2621 47.388H65.0961C65.1801 47.388 65.2501 47.4207 65.3061 47.486C65.3714 47.542 65.4041 47.612 65.4041 47.696C65.3948 48.172 65.2781 48.62 65.0541 49.04C64.8301 49.46 64.5221 49.824 64.1301 50.132C63.7381 50.44 63.2761 50.6873 62.7441 50.874C62.2214 51.0513 61.6521 51.14 61.0361 51.14C60.3641 51.14 59.7621 51.042 59.2301 50.846C58.7074 50.6407 58.2594 50.3653 57.8861 50.02C57.5128 49.6747 57.2234 49.2733 57.0181 48.816C56.8221 48.3493 56.7101 47.8593 56.6821 47.346C56.6634 46.9633 56.6541 46.5527 56.6541 46.114C56.6541 45.6753 56.6634 45.2553 56.6821 44.854C56.7008 44.3407 56.8128 43.8553 57.0181 43.398C57.2234 42.9313 57.5081 42.5253 57.8721 42.18C58.2454 41.8347 58.6981 41.564 59.2301 41.368C59.7621 41.1627 60.3641 41.06 61.0361 41.06C61.6521 41.06 62.2214 41.1533 62.7441 41.34C63.2761 41.5173 63.7381 41.76 64.1301 42.068C64.5221 42.376 64.8301 42.74 65.0541 43.16C65.2781 43.58 65.3948 44.028 65.4041 44.504C65.4041 44.588 65.3714 44.6627 65.3061 44.728C65.2501 44.784 65.1801 44.812 65.0961 44.812H63.2621C63.1034 44.812 62.9961 44.784 62.9401 44.728C62.8841 44.6627 62.8328 44.5553 62.7861 44.406C62.7488 44.294 62.6928 44.1727 62.6181 44.042C62.5528 43.9113 62.4548 43.7947 62.3241 43.692C62.1934 43.58 62.0254 43.4867 61.8201 43.412C61.6148 43.3373 61.3534 43.3 61.0361 43.3C60.7188 43.3 60.4528 43.3467 60.2381 43.44C60.0234 43.524 59.8461 43.6407 59.7061 43.79C59.5661 43.9393 59.4634 44.112 59.3981 44.308C59.3328 44.504 59.2908 44.7093 59.2721 44.924ZM66.2042 48.928C66.2042 48.312 66.4375 47.8033 66.9042 47.402C67.3802 47.0007 68.1502 46.7067 69.2142 46.52L70.8522 46.24C70.8522 46.016 70.7915 45.834 70.6702 45.694C70.5488 45.5447 70.3388 45.47 70.0402 45.47C69.8255 45.47 69.6575 45.5027 69.5362 45.568C69.4242 45.624 69.3402 45.6753 69.2842 45.722C69.2002 45.7967 69.1208 45.8433 69.0462 45.862C68.9715 45.8807 68.8828 45.89 68.7802 45.89H67.0022C66.9088 45.89 66.8295 45.862 66.7642 45.806C66.7082 45.75 66.6848 45.6753 66.6942 45.582C66.7128 45.3673 66.8062 45.1433 66.9742 44.91C67.1422 44.6767 67.3708 44.462 67.6602 44.266C67.9588 44.07 68.3088 43.9067 68.7102 43.776C69.1208 43.6453 69.5642 43.58 70.0402 43.58C70.6095 43.58 71.1042 43.65 71.5242 43.79C71.9442 43.93 72.2895 44.126 72.5602 44.378C72.8402 44.6207 73.0455 44.9147 73.1762 45.26C73.3068 45.596 73.3722 45.9693 73.3722 46.38V50.622C73.3722 50.7247 73.3348 50.8133 73.2602 50.888C73.1855 50.9627 73.0968 51 72.9942 51H71.2302C71.1275 51 71.0388 50.9627 70.9642 50.888C70.8895 50.8133 70.8522 50.7247 70.8522 50.622V50.23C70.6282 50.51 70.3482 50.734 70.0122 50.902C69.6855 51.0607 69.2515 51.14 68.7102 51.14C68.3088 51.14 67.9495 51.084 67.6322 50.972C67.3242 50.86 67.0628 50.706 66.8482 50.51C66.6428 50.314 66.4842 50.0807 66.3722 49.81C66.2602 49.5393 66.2042 49.2453 66.2042 48.928ZM69.3962 49.25C69.6015 49.25 69.7928 49.2173 69.9702 49.152C70.1475 49.0773 70.3015 48.9793 70.4322 48.858C70.5628 48.7367 70.6655 48.5967 70.7402 48.438C70.8148 48.27 70.8522 48.0927 70.8522 47.906L69.5642 48.102C69.3122 48.1487 69.1068 48.228 68.9482 48.34C68.7988 48.452 68.7242 48.5967 68.7242 48.774C68.7242 48.9513 68.7802 49.0773 68.8922 49.152C69.0135 49.2173 69.1815 49.25 69.3962 49.25ZM82.3863 50.622C82.3863 50.7247 82.349 50.8133 82.2743 50.888C82.1996 50.9627 82.111 51 82.0083 51H80.2443C80.1416 51 80.053 50.9627 79.9783 50.888C79.9036 50.8133 79.8663 50.7247 79.8663 50.622V47.08C79.8663 46.6787 79.7683 46.3567 79.5723 46.114C79.3763 45.8713 79.0683 45.75 78.6483 45.75C78.2283 45.75 77.9203 45.8713 77.7243 46.114C77.5376 46.3567 77.4443 46.6787 77.4443 47.08V50.622C77.4443 50.7247 77.407 50.8133 77.3323 50.888C77.2576 50.9627 77.169 51 77.0663 51H75.3023C75.1996 51 75.111 50.9627 75.0363 50.888C74.9616 50.8133 74.9243 50.7247 74.9243 50.622V41.438C74.9243 41.3353 74.9616 41.2467 75.0363 41.172C75.111 41.0973 75.1996 41.06 75.3023 41.06H77.0663C77.169 41.06 77.2576 41.0973 77.3323 41.172C77.407 41.2467 77.4443 41.3353 77.4443 41.438V44.42C77.603 44.224 77.8503 44.0373 78.1863 43.86C78.5223 43.6733 78.9096 43.58 79.3483 43.58C79.7963 43.58 80.207 43.6453 80.5803 43.776C80.9536 43.8973 81.271 44.0887 81.5323 44.35C81.803 44.6113 82.013 44.9427 82.1623 45.344C82.3116 45.7453 82.3863 46.2213 82.3863 46.772V50.622ZM83.4581 48.928C83.4581 48.312 83.6914 47.8033 84.1581 47.402C84.6341 47.0007 85.4041 46.7067 86.4681 46.52L88.1061 46.24C88.1061 46.016 88.0454 45.834 87.9241 45.694C87.8027 45.5447 87.5927 45.47 87.2941 45.47C87.0794 45.47 86.9114 45.5027 86.7901 45.568C86.6781 45.624 86.5941 45.6753 86.5381 45.722C86.4541 45.7967 86.3747 45.8433 86.3001 45.862C86.2254 45.8807 86.1367 45.89 86.0341 45.89H84.2561C84.1627 45.89 84.0834 45.862 84.0181 45.806C83.9621 45.75 83.9387 45.6753 83.9481 45.582C83.9667 45.3673 84.0601 45.1433 84.2281 44.91C84.3961 44.6767 84.6247 44.462 84.9141 44.266C85.2127 44.07 85.5627 43.9067 85.9641 43.776C86.3747 43.6453 86.8181 43.58 87.2941 43.58C87.8634 43.58 88.3581 43.65 88.7781 43.79C89.1981 43.93 89.5434 44.126 89.8141 44.378C90.0941 44.6207 90.2994 44.9147 90.4301 45.26C90.5607 45.596 90.6261 45.9693 90.6261 46.38V50.622C90.6261 50.7247 90.5887 50.8133 90.5141 50.888C90.4394 50.9627 90.3507 51 90.2481 51H88.4841C88.3814 51 88.2927 50.9627 88.2181 50.888C88.1434 50.8133 88.1061 50.7247 88.1061 50.622V50.23C87.8821 50.51 87.6021 50.734 87.2661 50.902C86.9394 51.0607 86.5054 51.14 85.9641 51.14C85.5627 51.14 85.2034 51.084 84.8861 50.972C84.5781 50.86 84.3167 50.706 84.1021 50.51C83.8967 50.314 83.7381 50.0807 83.6261 49.81C83.5141 49.5393 83.4581 49.2453 83.4581 48.928ZM86.6501 49.25C86.8554 49.25 87.0467 49.2173 87.2241 49.152C87.4014 49.0773 87.5554 48.9793 87.6861 48.858C87.8167 48.7367 87.9194 48.5967 87.9941 48.438C88.0687 48.27 88.1061 48.0927 88.1061 47.906L86.8181 48.102C86.5661 48.1487 86.3607 48.228 86.2021 48.34C86.0527 48.452 85.9781 48.5967 85.9781 48.774C85.9781 48.9513 86.0341 49.0773 86.1461 49.152C86.2674 49.2173 86.4354 49.25 86.6501 49.25ZM95.7261 53.324C95.6981 53.3987 95.6515 53.4733 95.5861 53.548C95.5208 53.6227 95.4321 53.66 95.3201 53.66H93.4861C93.3928 53.66 93.3135 53.6273 93.2481 53.562C93.1828 53.4967 93.1501 53.4173 93.1501 53.324C93.1501 53.2867 93.1548 53.254 93.1641 53.226L94.2281 50.72L91.4001 44.154C91.3908 44.126 91.3861 44.0933 91.3861 44.056C91.3861 43.9627 91.4188 43.8833 91.4841 43.818C91.5495 43.7527 91.6288 43.72 91.7221 43.72H93.5561C93.6681 43.72 93.7568 43.7573 93.8221 43.832C93.8875 43.9067 93.9341 43.9813 93.9621 44.056L95.5161 47.696L97.0561 44.056C97.0841 43.9813 97.1308 43.9067 97.1961 43.832C97.2615 43.7573 97.3501 43.72 97.4621 43.72H99.3101C99.4035 43.72 99.4828 43.7527 99.5481 43.818C99.6135 43.8833 99.6461 43.9627 99.6461 44.056C99.6461 44.0933 99.6415 44.126 99.6321 44.154L95.7261 53.324ZM99.8506 48.928C99.8506 48.312 100.084 47.8033 100.551 47.402C101.027 47.0007 101.797 46.7067 102.861 46.52L104.499 46.24C104.499 46.016 104.438 45.834 104.317 45.694C104.195 45.5447 103.985 45.47 103.687 45.47C103.472 45.47 103.304 45.5027 103.183 45.568C103.071 45.624 102.987 45.6753 102.931 45.722C102.847 45.7967 102.767 45.8433 102.693 45.862C102.618 45.8807 102.529 45.89 102.427 45.89H100.649C100.555 45.89 100.476 45.862 100.411 45.806C100.355 45.75 100.331 45.6753 100.341 45.582C100.359 45.3673 100.453 45.1433 100.621 44.91C100.789 44.6767 101.017 44.462 101.307 44.266C101.605 44.07 101.955 43.9067 102.357 43.776C102.767 43.6453 103.211 43.58 103.687 43.58C104.256 43.58 104.751 43.65 105.171 43.79C105.591 43.93 105.936 44.126 106.207 44.378C106.487 44.6207 106.692 44.9147 106.823 45.26C106.953 45.596 107.019 45.9693 107.019 46.38V50.622C107.019 50.7247 106.981 50.8133 106.907 50.888C106.832 50.9627 106.743 51 106.641 51H104.877C104.774 51 104.685 50.9627 104.611 50.888C104.536 50.8133 104.499 50.7247 104.499 50.622V50.23C104.275 50.51 103.995 50.734 103.659 50.902C103.332 51.0607 102.898 51.14 102.357 51.14C101.955 51.14 101.596 51.084 101.279 50.972C100.971 50.86 100.709 50.706 100.495 50.51C100.289 50.314 100.131 50.0807 100.019 49.81C99.9066 49.5393 99.8506 49.2453 99.8506 48.928ZM103.043 49.25C103.248 49.25 103.439 49.2173 103.617 49.152C103.794 49.0773 103.948 48.9793 104.079 48.858C104.209 48.7367 104.312 48.5967 104.387 48.438C104.461 48.27 104.499 48.0927 104.499 47.906L103.211 48.102C102.959 48.1487 102.753 48.228 102.595 48.34C102.445 48.452 102.371 48.5967 102.371 48.774C102.371 48.9513 102.427 49.0773 102.539 49.152C102.66 49.2173 102.828 49.25 103.043 49.25ZM116.53 41.2C116.717 41.2 116.857 41.2513 116.95 41.354C117.053 41.4567 117.123 41.5593 117.16 41.662L120.212 50.482C120.249 50.5753 120.268 50.6453 120.268 50.692C120.268 50.776 120.235 50.8507 120.17 50.916C120.114 50.972 120.044 51 119.96 51H118.196C118.009 51 117.874 50.9627 117.79 50.888C117.715 50.804 117.669 50.7247 117.65 50.65L117.258 49.488H113.534L113.142 50.65C113.123 50.7247 113.072 50.804 112.988 50.888C112.913 50.9627 112.783 51 112.596 51H110.832C110.748 51 110.673 50.972 110.608 50.916C110.552 50.8507 110.524 50.776 110.524 50.692C110.524 50.6453 110.543 50.5753 110.58 50.482L113.632 41.662C113.669 41.5593 113.735 41.4567 113.828 41.354C113.931 41.2513 114.075 41.2 114.262 41.2H116.53ZM114.262 47.318H116.53L115.396 43.958L114.262 47.318ZM125.627 43.58C126.047 43.58 126.444 43.6453 126.817 43.776C127.19 43.9067 127.517 44.1073 127.797 44.378C128.077 44.6393 128.301 44.9707 128.469 45.372C128.646 45.7733 128.744 46.2493 128.763 46.8C128.772 46.94 128.777 47.1313 128.777 47.374C128.777 47.6073 128.772 47.794 128.763 47.934C128.744 48.4847 128.646 48.9607 128.469 49.362C128.301 49.7633 128.077 50.0993 127.797 50.37C127.517 50.6313 127.19 50.8273 126.817 50.958C126.444 51.0793 126.047 51.14 125.627 51.14C125.319 51.14 125.058 51.112 124.843 51.056C124.638 51.0093 124.46 50.9487 124.311 50.874C124.171 50.79 124.05 50.7013 123.947 50.608C123.854 50.5053 123.765 50.4027 123.681 50.3V50.622C123.681 50.7247 123.644 50.8133 123.569 50.888C123.494 50.9627 123.406 51 123.303 51H121.609C121.506 51 121.418 50.9627 121.343 50.888C121.268 50.8133 121.231 50.7247 121.231 50.622V41.438C121.231 41.3353 121.268 41.2467 121.343 41.172C121.418 41.0973 121.506 41.06 121.609 41.06H123.373C123.476 41.06 123.564 41.0973 123.639 41.172C123.714 41.2467 123.751 41.3353 123.751 41.438V44.42C123.816 44.336 123.9 44.2473 124.003 44.154C124.106 44.0513 124.232 43.958 124.381 43.874C124.53 43.79 124.708 43.72 124.913 43.664C125.118 43.608 125.356 43.58 125.627 43.58ZM126.257 46.968C126.229 46.6413 126.122 46.3567 125.935 46.114C125.748 45.8713 125.436 45.75 124.997 45.75C124.792 45.75 124.614 45.7827 124.465 45.848C124.316 45.9133 124.19 46.002 124.087 46.114C123.994 46.2167 123.919 46.3333 123.863 46.464C123.807 46.5947 123.77 46.73 123.751 46.87C123.732 47.01 123.723 47.1733 123.723 47.36C123.723 47.5467 123.732 47.71 123.751 47.85C123.77 47.99 123.807 48.1253 123.863 48.256C123.919 48.3867 123.994 48.508 124.087 48.62C124.19 48.7227 124.316 48.8067 124.465 48.872C124.614 48.9373 124.792 48.97 124.997 48.97C125.436 48.97 125.748 48.8487 125.935 48.606C126.122 48.3633 126.229 48.0787 126.257 47.752C126.285 47.4907 126.285 47.2293 126.257 46.968ZM129.628 48.928C129.628 48.312 129.861 47.8033 130.328 47.402C130.804 47.0007 131.574 46.7067 132.638 46.52L134.276 46.24C134.276 46.016 134.215 45.834 134.094 45.694C133.973 45.5447 133.763 45.47 133.464 45.47C133.249 45.47 133.081 45.5027 132.96 45.568C132.848 45.624 132.764 45.6753 132.708 45.722C132.624 45.7967 132.545 45.8433 132.47 45.862C132.395 45.8807 132.307 45.89 132.204 45.89H130.426C130.333 45.89 130.253 45.862 130.188 45.806C130.132 45.75 130.109 45.6753 130.118 45.582C130.137 45.3673 130.23 45.1433 130.398 44.91C130.566 44.6767 130.795 44.462 131.084 44.266C131.383 44.07 131.733 43.9067 132.134 43.776C132.545 43.6453 132.988 43.58 133.464 43.58C134.033 43.58 134.528 43.65 134.948 43.79C135.368 43.93 135.713 44.126 135.984 44.378C136.264 44.6207 136.469 44.9147 136.6 45.26C136.731 45.596 136.796 45.9693 136.796 46.38V50.622C136.796 50.7247 136.759 50.8133 136.684 50.888C136.609 50.9627 136.521 51 136.418 51H134.654C134.551 51 134.463 50.9627 134.388 50.888C134.313 50.8133 134.276 50.7247 134.276 50.622V50.23C134.052 50.51 133.772 50.734 133.436 50.902C133.109 51.0607 132.675 51.14 132.134 51.14C131.733 51.14 131.373 51.084 131.056 50.972C130.748 50.86 130.487 50.706 130.272 50.51C130.067 50.314 129.908 50.0807 129.796 49.81C129.684 49.5393 129.628 49.2453 129.628 48.928ZM132.82 49.25C133.025 49.25 133.217 49.2173 133.394 49.152C133.571 49.0773 133.725 48.9793 133.856 48.858C133.987 48.7367 134.089 48.5967 134.164 48.438C134.239 48.27 134.276 48.0927 134.276 47.906L132.988 48.102C132.736 48.1487 132.531 48.228 132.372 48.34C132.223 48.452 132.148 48.5967 132.148 48.774C132.148 48.9513 132.204 49.0773 132.316 49.152C132.437 49.2173 132.605 49.25 132.82 49.25ZM141.204 43.58C141.475 43.58 141.713 43.608 141.918 43.664C142.123 43.72 142.301 43.79 142.45 43.874C142.599 43.958 142.725 44.0513 142.828 44.154C142.931 44.2473 143.015 44.336 143.08 44.42V41.438C143.08 41.3353 143.117 41.2467 143.192 41.172C143.267 41.0973 143.355 41.06 143.458 41.06H145.222C145.325 41.06 145.413 41.0973 145.488 41.172C145.563 41.2467 145.6 41.3353 145.6 41.438V50.622C145.6 50.7247 145.563 50.8133 145.488 50.888C145.413 50.9627 145.325 51 145.222 51H143.528C143.425 51 143.337 50.9627 143.262 50.888C143.187 50.8133 143.15 50.7247 143.15 50.622V50.3C143.066 50.4027 142.973 50.5053 142.87 50.608C142.777 50.7013 142.655 50.79 142.506 50.874C142.366 50.9487 142.189 51.0093 141.974 51.056C141.769 51.112 141.512 51.14 141.204 51.14C140.784 51.14 140.387 51.0793 140.014 50.958C139.641 50.8273 139.314 50.6313 139.034 50.37C138.754 50.0993 138.525 49.7633 138.348 49.362C138.18 48.9607 138.087 48.4847 138.068 47.934C138.059 47.794 138.054 47.6073 138.054 47.374C138.054 47.1313 138.059 46.94 138.068 46.8C138.087 46.2493 138.18 45.7733 138.348 45.372C138.525 44.9707 138.754 44.6393 139.034 44.378C139.314 44.1073 139.641 43.9067 140.014 43.776C140.387 43.6453 140.784 43.58 141.204 43.58ZM140.574 46.968C140.546 47.2293 140.546 47.4907 140.574 47.752C140.602 48.0787 140.709 48.3633 140.896 48.606C141.083 48.8487 141.395 48.97 141.834 48.97C142.039 48.97 142.217 48.9373 142.366 48.872C142.515 48.8067 142.637 48.7227 142.73 48.62C142.833 48.508 142.912 48.3867 142.968 48.256C143.024 48.1253 143.061 47.99 143.08 47.85C143.099 47.71 143.108 47.5467 143.108 47.36C143.108 47.1733 143.099 47.01 143.08 46.87C143.061 46.73 143.024 46.5947 142.968 46.464C142.912 46.3333 142.833 46.2167 142.73 46.114C142.637 46.002 142.515 45.9133 142.366 45.848C142.217 45.7827 142.039 45.75 141.834 45.75C141.395 45.75 141.083 45.8713 140.896 46.114C140.709 46.3567 140.602 46.6413 140.574 46.968ZM149.741 50.622C149.741 50.7247 149.704 50.8133 149.629 50.888C149.555 50.9627 149.466 51 149.363 51H147.599C147.497 51 147.408 50.9627 147.333 50.888C147.259 50.8133 147.221 50.7247 147.221 50.622V44.098C147.221 43.9953 147.259 43.9067 147.333 43.832C147.408 43.7573 147.497 43.72 147.599 43.72H149.363C149.466 43.72 149.555 43.7573 149.629 43.832C149.704 43.9067 149.741 43.9953 149.741 44.098V50.622ZM149.741 42.572C149.741 42.6747 149.704 42.7633 149.629 42.838C149.555 42.9127 149.466 42.95 149.363 42.95H147.599C147.497 42.95 147.408 42.9127 147.333 42.838C147.259 42.7633 147.221 42.6747 147.221 42.572V41.158C147.221 41.0553 147.259 40.9667 147.333 40.892C147.408 40.8173 147.497 40.78 147.599 40.78H149.363C149.466 40.78 149.555 40.8173 149.629 40.892C149.704 40.9667 149.741 41.0553 149.741 41.158V42.572Z" fill="#333333"/>
</svg>
