<svg width="93" height="34" viewBox="0 0 93 34" fill="none" xmlns="http://www.w3.org/2000/svg">
<path fill-rule="evenodd" clip-rule="evenodd" d="M19.7967 0V13.0658C19.7967 23.8899 10.9334 32.6645 0 32.6645L0 19.5987C0 8.77464 8.86327 0 19.7967 0Z" fill="#D8D8D8"/>
<path fill-rule="evenodd" clip-rule="evenodd" d="M29.695 8.1323L25.2102 20.5776C21.4948 30.8875 10.2079 36.2034 0 32.4509L4.48483 20.0056C8.20018 9.69564 19.4872 4.37977 29.695 8.1323Z" fill="white"/>
<path d="M55.192 19.672C55.224 19.464 55.304 19.312 55.432 19.216C55.576 19.104 55.728 19.048 55.888 19.048H57.832C58.008 19.048 58.16 19.112 58.288 19.24C58.432 19.352 58.496 19.504 58.48 19.696C58.432 20.352 58.264 21.008 57.976 21.664C57.704 22.32 57.28 22.912 56.704 23.44C56.128 23.968 55.4 24.4 54.52 24.736C53.64 25.072 52.576 25.24 51.328 25.24C50.224 25.24 49.248 25.08 48.4 24.76C47.552 24.424 46.832 23.968 46.24 23.392C45.648 22.8 45.184 22.096 44.848 21.28C44.528 20.464 44.336 19.576 44.272 18.616C44.24 18.008 44.224 17.336 44.224 16.6C44.224 15.864 44.24 15.192 44.272 14.584C44.336 13.624 44.528 12.736 44.848 11.92C45.184 11.104 45.648 10.408 46.24 9.832C46.832 9.24 47.552 8.784 48.4 8.464C49.248 8.128 50.224 7.96 51.328 7.96C52.576 7.96 53.64 8.128 54.52 8.464C55.4 8.8 56.128 9.232 56.704 9.76C57.28 10.288 57.704 10.888 57.976 11.56C58.264 12.216 58.432 12.864 58.48 13.504C58.496 13.696 58.432 13.856 58.288 13.984C58.16 14.096 58.008 14.152 57.832 14.152H55.888C55.728 14.152 55.576 14.104 55.432 14.008C55.288 13.896 55.2 13.736 55.168 13.528C55.12 13.208 55.008 12.896 54.832 12.592C54.656 12.288 54.416 12.016 54.112 11.776C53.808 11.536 53.424 11.344 52.96 11.2C52.496 11.04 51.952 10.96 51.328 10.96C50.704 10.96 50.16 11.056 49.696 11.248C49.232 11.44 48.84 11.696 48.52 12.016C48.216 12.336 47.976 12.72 47.8 13.168C47.64 13.616 47.544 14.088 47.512 14.584C47.48 15.192 47.464 15.864 47.464 16.6C47.464 17.336 47.48 18.008 47.512 18.616C47.544 19.128 47.64 19.608 47.8 20.056C47.976 20.488 48.216 20.864 48.52 21.184C48.84 21.504 49.232 21.76 49.696 21.952C50.16 22.144 50.704 22.24 51.328 22.24C51.952 22.24 52.496 22.168 52.96 22.024C53.424 21.864 53.808 21.664 54.112 21.424C54.432 21.184 54.68 20.912 54.856 20.608C55.032 20.304 55.144 19.992 55.192 19.672ZM71.5983 19.672C71.6303 19.464 71.7103 19.312 71.8383 19.216C71.9823 19.104 72.1343 19.048 72.2943 19.048H74.2383C74.4143 19.048 74.5663 19.112 74.6943 19.24C74.8383 19.352 74.9023 19.504 74.8863 19.696C74.8383 20.352 74.6703 21.008 74.3823 21.664C74.1103 22.32 73.6863 22.912 73.1103 23.44C72.5343 23.968 71.8063 24.4 70.9263 24.736C70.0463 25.072 68.9823 25.24 67.7343 25.24C66.6303 25.24 65.6543 25.08 64.8063 24.76C63.9583 24.424 63.2383 23.968 62.6463 23.392C62.0543 22.8 61.5903 22.096 61.2543 21.28C60.9343 20.464 60.7423 19.576 60.6783 18.616C60.6463 18.008 60.6303 17.336 60.6303 16.6C60.6303 15.864 60.6463 15.192 60.6783 14.584C60.7423 13.624 60.9343 12.736 61.2543 11.92C61.5903 11.104 62.0543 10.408 62.6463 9.832C63.2383 9.24 63.9583 8.784 64.8063 8.464C65.6543 8.128 66.6303 7.96 67.7343 7.96C68.9823 7.96 70.0463 8.128 70.9263 8.464C71.8063 8.8 72.5343 9.232 73.1103 9.76C73.6863 10.288 74.1103 10.888 74.3823 11.56C74.6703 12.216 74.8383 12.864 74.8863 13.504C74.9023 13.696 74.8383 13.856 74.6943 13.984C74.5663 14.096 74.4143 14.152 74.2383 14.152H72.2943C72.1343 14.152 71.9823 14.104 71.8383 14.008C71.6943 13.896 71.6063 13.736 71.5743 13.528C71.5263 13.208 71.4143 12.896 71.2383 12.592C71.0623 12.288 70.8223 12.016 70.5183 11.776C70.2143 11.536 69.8303 11.344 69.3663 11.2C68.9023 11.04 68.3583 10.96 67.7343 10.96C67.1103 10.96 66.5663 11.056 66.1023 11.248C65.6383 11.44 65.2463 11.696 64.9263 12.016C64.6223 12.336 64.3823 12.72 64.2063 13.168C64.0463 13.616 63.9503 14.088 63.9183 14.584C63.8863 15.192 63.8703 15.864 63.8703 16.6C63.8703 17.336 63.8863 18.008 63.9183 18.616C63.9503 19.128 64.0463 19.608 64.2063 20.056C64.3823 20.488 64.6223 20.864 64.9263 21.184C65.2463 21.504 65.6383 21.76 66.1023 21.952C66.5663 22.144 67.1103 22.24 67.7343 22.24C68.3583 22.24 68.9023 22.168 69.3663 22.024C69.8303 21.864 70.2143 21.664 70.5183 21.424C70.8383 21.184 71.0863 20.912 71.2623 20.608C71.4383 20.304 71.5503 19.992 71.5983 19.672ZM85.4164 8.2C85.6724 8.2 85.8644 8.272 85.9924 8.416C86.1204 8.544 86.2324 8.744 86.3284 9.016L92.2084 24.184C92.2244 24.232 92.2324 24.288 92.2324 24.352C92.2324 24.528 92.1684 24.68 92.0404 24.808C91.9124 24.936 91.7604 25 91.5844 25H89.8564C89.5364 25 89.3124 24.936 89.1844 24.808C89.0564 24.664 88.9684 24.528 88.9204 24.4L87.8884 21.736H80.3044L79.2724 24.4C79.2244 24.528 79.1364 24.664 79.0084 24.808C78.8804 24.936 78.6564 25 78.3364 25H76.6084C76.4324 25 76.2804 24.936 76.1524 24.808C76.0244 24.68 75.9604 24.528 75.9604 24.352C75.9604 24.288 75.9684 24.232 75.9844 24.184L81.8644 9.016C81.9604 8.744 82.0724 8.544 82.2004 8.416C82.3284 8.272 82.5204 8.2 82.7764 8.2H85.4164ZM86.7364 18.736L84.0964 11.896L81.4564 18.736H86.7364Z" fill="white"/>
</svg>
