<svg width="24" height="24" viewBox="0 0 24 24" fill="none" xmlns="http://www.w3.org/2000/svg">
<path fill-rule="evenodd" clip-rule="evenodd" d="M16.2955 9.60598L11.7275 15.606C11.5395 15.853 11.2485 15.999 10.9385 16.001H10.9315C10.6245 16.001 10.3345 15.859 10.1445 15.617L7.71249 12.51C7.37249 12.076 7.44849 11.447 7.88349 11.107C8.31749 10.766 8.94749 10.842 9.28749 11.278L10.9205 13.364L14.7045 8.39498C15.0385 7.95598 15.6655 7.86998 16.1065 8.20498C16.5455 8.53998 16.6305 9.16698 16.2955 9.60598M12.0005 2.00098C6.47749 2.00098 2.00049 6.47798 2.00049 12.001C2.00049 17.523 6.47749 22.001 12.0005 22.001C17.5235 22.001 22.0005 17.523 22.0005 12.001C22.0005 6.47798 17.5235 2.00098 12.0005 2.00098" fill="#27AE60"/>
<mask id="mask0" mask-type="alpha" maskUnits="userSpaceOnUse" x="2" y="2" width="21" height="21">
<path fill-rule="evenodd" clip-rule="evenodd" d="M16.2955 9.60598L11.7275 15.606C11.5395 15.853 11.2485 15.999 10.9385 16.001H10.9315C10.6245 16.001 10.3345 15.859 10.1445 15.617L7.71249 12.51C7.37249 12.076 7.44849 11.447 7.88349 11.107C8.31749 10.766 8.94749 10.842 9.28749 11.278L10.9205 13.364L14.7045 8.39498C15.0385 7.95598 15.6655 7.86998 16.1065 8.20498C16.5455 8.53998 16.6305 9.16698 16.2955 9.60598M12.0005 2.00098C6.47749 2.00098 2.00049 6.47798 2.00049 12.001C2.00049 17.523 6.47749 22.001 12.0005 22.001C17.5235 22.001 22.0005 17.523 22.0005 12.001C22.0005 6.47798 17.5235 2.00098 12.0005 2.00098" fill="white"/>
</mask>
<g mask="url(#mask0)">
</g>
</svg>
