<svg width="24" height="24" viewBox="0 0 24 24" fill="none" xmlns="http://www.w3.org/2000/svg">
<path fill-rule="evenodd" clip-rule="evenodd" d="M17.9654 6.72916L15.2714 4.03516L13.3234 5.98416L16.0184 8.67916L17.9654 6.72916ZM5.09038 17.9962C5.06038 17.9992 5.03038 18.0002 5.00038 18.0002C4.73638 18.0002 4.48138 17.8962 4.29238 17.7072C4.08338 17.4972 3.97738 17.2052 4.00338 16.9102L4.38238 12.7402C4.42438 12.2832 4.62638 11.8512 4.95238 11.5262L13.9484 2.53016C14.6504 1.82516 15.9234 1.86016 16.6644 2.59916L19.4024 5.33716L19.4034 5.33816C20.1684 6.10416 20.1994 7.32216 19.4714 8.05216L10.4744 17.0492C10.1494 17.3742 9.71838 17.5762 9.26038 17.6182L5.09038 17.9962ZM4.99988 20.0005H18.9999C19.5499 20.0005 19.9999 20.4505 19.9999 21.0005C19.9999 21.5505 19.5499 22.0005 18.9999 22.0005H4.99988C4.44988 22.0005 3.99988 21.5505 3.99988 21.0005C3.99988 20.4505 4.44988 20.0005 4.99988 20.0005Z" fill="#222B45"/>
<mask id="mask0" mask-type="alpha" maskUnits="userSpaceOnUse" x="3" y="2" width="17" height="21">
<path fill-rule="evenodd" clip-rule="evenodd" d="M17.9654 6.72916L15.2714 4.03516L13.3234 5.98416L16.0184 8.67916L17.9654 6.72916ZM5.09038 17.9962C5.06038 17.9992 5.03038 18.0002 5.00038 18.0002C4.73638 18.0002 4.48138 17.8962 4.29238 17.7072C4.08338 17.4972 3.97738 17.2052 4.00338 16.9102L4.38238 12.7402C4.42438 12.2832 4.62638 11.8512 4.95238 11.5262L13.9484 2.53016C14.6504 1.82516 15.9234 1.86016 16.6644 2.59916L19.4024 5.33716L19.4034 5.33816C20.1684 6.10416 20.1994 7.32216 19.4714 8.05216L10.4744 17.0492C10.1494 17.3742 9.71838 17.5762 9.26038 17.6182L5.09038 17.9962ZM4.99988 20.0005H18.9999C19.5499 20.0005 19.9999 20.4505 19.9999 21.0005C19.9999 21.5505 19.5499 22.0005 18.9999 22.0005H4.99988C4.44988 22.0005 3.99988 21.5505 3.99988 21.0005C3.99988 20.4505 4.44988 20.0005 4.99988 20.0005Z" fill="white"/>
</mask>
<g mask="url(#mask0)">
</g>
</svg>
