<svg width="24" height="24" viewBox="0 0 24 24" fill="none" xmlns="http://www.w3.org/2000/svg">
<path fill-rule="evenodd" clip-rule="evenodd" d="M7.81 2H16.191C19.28 2 21 3.78 21 6.83V17.16C21 20.26 19.28 22 16.191 22H7.81C4.77 22 3 20.26 3 17.16V6.83C3 3.78 4.77 2 7.81 2ZM8.08 6.66V6.65H11.069C11.5 6.65 11.85 7 11.85 7.429C11.85 7.87 11.5 8.22 11.069 8.22H8.08C7.649 8.22 7.3 7.87 7.3 7.44C7.3 7.01 7.649 6.66 8.08 6.66ZM8.08 12.74H15.92C16.35 12.74 16.7 12.39 16.7 11.96C16.7 11.53 16.35 11.179 15.92 11.179H8.08C7.649 11.179 7.3 11.53 7.3 11.96C7.3 12.39 7.649 12.74 8.08 12.74ZM8.08 17.31H15.92C16.319 17.27 16.62 16.929 16.62 16.53C16.62 16.12 16.319 15.78 15.92 15.74H8.08C7.78 15.71 7.49 15.85 7.33 16.11C7.17 16.36 7.17 16.69 7.33 16.95C7.49 17.2 7.78 17.35 8.08 17.31Z" fill="#2D9CDB"/>
<path fill-rule="evenodd" clip-rule="evenodd" d="M21 19.875H19.5C19.293 19.875 19.125 19.7074 19.125 19.5V18C19.125 17.7926 19.293 17.625 19.5 17.625C19.707 17.625 19.875 17.7926 19.875 18V19.125H21C21.2074 19.125 21.375 19.2926 21.375 19.5C21.375 19.7074 21.2074 19.875 21 19.875ZM19.5 15.75C17.4323 15.75 15.75 17.4323 15.75 19.5C15.75 21.5677 17.4323 23.25 19.5 23.25C21.5677 23.25 23.25 21.5677 23.25 19.5C23.25 17.4323 21.5677 15.75 19.5 15.75Z" fill="#2D9CDB"/>
<path d="M19.875 19.125H19.525V19.475H19.875V19.125ZM21 19.525H19.5V20.225H21V19.525ZM19.5 19.525C19.4861 19.525 19.475 19.5138 19.475 19.5H18.775C18.775 19.9009 19.0999 20.225 19.5 20.225V19.525ZM19.475 19.5V18H18.775V19.5H19.475ZM19.475 18C19.475 17.9862 19.4861 17.975 19.5 17.975V17.275C19.0999 17.275 18.775 17.5991 18.775 18H19.475ZM19.5 17.975C19.5139 17.975 19.525 17.9862 19.525 18H20.225C20.225 17.5991 19.9001 17.275 19.5 17.275V17.975ZM19.525 18V19.125H20.225V18H19.525ZM19.875 19.475H21V18.775H19.875V19.475ZM21 19.475C21.0141 19.475 21.025 19.4859 21.025 19.5H21.725C21.725 19.0993 21.4007 18.775 21 18.775V19.475ZM21.025 19.5C21.025 19.5141 21.0141 19.525 21 19.525V20.225C21.4007 20.225 21.725 19.9007 21.725 19.5H21.025ZM19.5 15.4C17.239 15.4 15.4 17.239 15.4 19.5H16.1C16.1 17.6255 17.6255 16.1 19.5 16.1V15.4ZM15.4 19.5C15.4 21.761 17.239 23.6 19.5 23.6V22.9C17.6255 22.9 16.1 21.3745 16.1 19.5H15.4ZM19.5 23.6C21.761 23.6 23.6 21.761 23.6 19.5H22.9C22.9 21.3745 21.3745 22.9 19.5 22.9V23.6ZM23.6 19.5C23.6 17.239 21.761 15.4 19.5 15.4V16.1C21.3745 16.1 22.9 17.6255 22.9 19.5H23.6Z" fill="white"/>
</svg>
